<?xml version="1.0" encoding="UTF-8"?>
<!-- Generator: Adobe Illustrator 27.7.0, SVG Export Plug-In . SVG Version: 6.00 Build 0)  -->
<svg xmlns="http://www.w3.org/2000/svg" xmlns:xlink="http://www.w3.org/1999/xlink" version="1.1" id="Layer_1" x="0px" y="0px" viewBox="0 0 137.5 140" style="enable-background:new 0 0 137.5 140;" xml:space="preserve">
<style type="text/css">
	.st0{fill:#1F396C;}
	.st1{fill:url(#SVGID_1_);}
	.st2{fill:url(#SVGID_00000070089296501884858720000003432726356454186120_);}
	.st3{fill:url(#SVGID_00000016762144582256984240000011897219521201841598_);}
	.st4{fill:url(#SVGID_00000033368904661081116830000007628077244813276596_);}
	.st5{fill:url(#SVGID_00000039834219053840281600000017266576583586998709_);}
	.st6{fill:url(#SVGID_00000153674081530912822040000014739502103922284973_);}
	.st7{fill:url(#SVGID_00000105406359256654438140000000854640166720786567_);}
	.st8{fill:#FFFFFF;}
</style>
<g>
	<g>
		<path class="st0" d="M9.7,49c0,0.5,0,0.9,0,1.3c0,22.8,0,45.6,0,68.3c0,5.8,3.6,10.2,9.2,11.3c1,0.2,2,0.2,3,0.2    c15.4,0,30.9,0,46.3,0c3.3,0,5.5,2.1,5.4,5.1c-0.1,2.3-1.8,4.3-4,4.6c-0.5,0.1-1,0.1-1.5,0.1c-15.6,0-31.3,0.1-46.9,0    c-10.1,0-18.2-6.4-20.5-16.1c-0.5-2-0.6-4.2-0.6-6.3c0-23.6,0-47.2,0-70.8C0,37.5-0.1,28.2,0.2,19C0.5,9.5,9.3,0.7,18.7,0.1    c1.3-0.1,2.7-0.1,4-0.1c31.1,0,62.1,0,93.2,0c9.1,0,15.7,4.2,19.7,12.5c1.4,2.8,1.8,5.9,1.8,9c0,18.1,0,36.2,0,54.3    c0,2.2-0.6,3.9-2.6,5c-1.6,0.9-3.3,0.8-4.8-0.2c-1.7-1.1-2.3-2.7-2.3-4.7c0-8.4,0-16.8,0-25.2c0-0.5,0-1.1,0-1.8L9.7,49L9.7,49z     M127.8,39c0-5.9,0-11.7,0-17.5c0-6.8-4.8-11.6-11.4-11.6c-31.8,0-63.5,0-95.3,0c-6.7,0-11.4,4.8-11.4,11.6c0,5.4,0,10.8,0,16.2    c0,0.4,0.1,0.9,0.1,1.4L127.8,39L127.8,39z"></path>
		
			<linearGradient id="SVGID_1_" gradientUnits="userSpaceOnUse" x1="334.6183" y1="-686.3305" x2="393.4477" y2="-686.3305" gradientTransform="matrix(1 0 0 -1 -256 -580.8495)">
			<stop offset="0" style="stop-color:#2653A3"></stop>
			<stop offset="1" style="stop-color:#29ADE3"></stop>
		</linearGradient>
		<path class="st1" d="M118.6,116.9c3.5,5.1,6.9,9.9,10.1,14.8c0.7,1.1,1.2,2.7,1.2,4.1c0,2-1.7,3.7-3.5,4c-2.2,0.4-3.9-0.2-5.2-2.1    c-3.1-4.6-6.3-9.2-9.4-13.7c-0.3-0.4-0.6-0.9-1.1-1.4c-2.2,3-4.4,5.8-6.5,8.7c-0.6,0.8-1.2,1.7-1.9,2.5c-2.5,2.7-5.5,3.7-9,2.7    c-3.4-1-5.6-3.5-6.2-7.1c-2.8-15.9-5.6-31.8-8.3-47.8c-0.6-3.5,0.6-6.6,3.5-8.7c3-2.2,6.3-2.4,9.6-0.5c7.1,4.1,14.1,8.2,21.1,12.4    c6.5,3.8,13,7.7,19.6,11.5c3.6,2.1,5.4,5.1,4.9,9.3c-0.5,4-3,6.4-6.7,7.5C126.7,114.2,122.8,115.5,118.6,116.9L118.6,116.9z     M96.2,125.6c0.5-0.6,0.8-0.9,1-1.3c3.2-4.2,6.3-8.5,9.6-12.7c0.8-1,2-1.8,3.2-2.3c4.5-1.6,9-2.9,13.5-4.4c0.9-0.3,1.8-0.6,2.9-1    c-12.7-7.5-25.2-14.8-37.9-22.3C91.1,96.5,93.6,110.9,96.2,125.6L96.2,125.6z"></path>
		<path class="st0" d="M46.4,24.7c-0.1,2.6-2.4,4.8-4.9,4.7c-2.6-0.1-4.8-2.5-4.7-5.1c0.1-2.7,2.5-4.8,5.1-4.7    C44.5,19.7,46.5,22,46.4,24.7L46.4,24.7z"></path>
		<path class="st0" d="M30.4,24.5c0,2.7-2.2,4.9-4.8,4.9c-2.6,0-4.8-2.2-4.8-5c0-2.7,2.1-4.8,4.8-4.8C28.3,19.5,30.4,21.7,30.4,24.5    L30.4,24.5z"></path>
		<path class="st0" d="M57.5,19.5c2.6,0,4.9,2.2,4.9,4.9c0,2.6-2.2,4.9-4.8,4.9c-2.6,0.1-4.9-2.2-4.9-4.9    C52.8,21.7,54.9,19.6,57.5,19.5L57.5,19.5z"></path>
	</g>
</g>
</svg>
